<?xml version="1.0" encoding="UTF-8"?>
<svg id="a" data-name="Layer 1" xmlns="http://www.w3.org/2000/svg" viewBox="0 0 479.078537 441.124973">
  <defs>
    <style>
      .b {
        fill: #25292c;
      }

      .b, .c, .d, .e, .f, .g {
        stroke-width: 0px;
      }

      .c {
        fill: #dadbd6;
      }

      .d {
        fill: #fff;
      }

      .e {
        fill: #fdb954;
      }

      .f {
        fill: #fca31f;
      }

      .g {
        fill: #0077b6;
      }
    </style>
  </defs>
  <path class="c" d="M99.216998,394.348286c49.096946-6.242817,84.27776-47.638278,78.578639-92.459285L0,324.496225c5.699121,44.821007,50.120052,76.094878,99.216998,69.852061Z"/>
  <path class="d" d="M289.547475,177.020502c-19.345222-13.024922-35.112643-30.960669-44.208412-52.382395l42.44607-10.870454c-.033447-.517633-.068013-1.031045-.102895-1.543267-6.108643-8.436752,9.252838-20.704132-13.596649-7.732239-8.077271,4.585556-39.014773,11.897039-42.783222,11.216152l-3.285138-20.10017c-3.017482-10.19108,8.067431-20.299657,19.497804-23.488596l32.570556-3.627387c-2.704195-7.21039-6.206549-13.464538-10.817544-16.930927-9.402685-7.068717-31.254764-21.656413-55.7142-24.764681-21.29423-2.706106-80.787709-6.327865-80.787709-6.327865.286848,3.763352,1.322274,8.783198,4.921496,12.792624.617895.688372.691478,4.357037,8.297817,8.297817,10.228668,5.299368,18.313061,9.144107,18.313061,9.144107l-76.694744,25.146694s14.904487,19.699522,27.561094,24.979697c12.656527,5.280176,46.026419,6.985259,46.026419,6.985259,0,0-9.237759,11.328041-8.508374,16.775134.729385,5.447252,23.1945,173.220966,23.1945,173.220966,6.193519,46.254177-28.272162,88.518439-76.981274,94.399786C50.384357,398.068295,6.562771,370.449362.085589,324.492147c10.845687,76.190012,83.882641,125.122844,164.346312,115.40727,80.66053-9.739306,134.280626-32.489518,127.856242-156.144411-2.055879-39.571614-2.371715-75.495587-2.740668-106.734504Z"/>
  <ellipse class="b" cx="207.089224" cy="60.479467" rx="15.415065" ry="14.638164"/>
  <ellipse class="b" cx="286.901105" cy="28.73922" rx="13.184484" ry="12.520001"/>
  <path class="f" d="M398.131003,198.010227c61.826609-15.593374,92.417282-74.700224,68.326321-132.018776l-223.893793,56.468561c24.090961,57.318552,93.740862,91.143589,155.567472,75.550215Z"/>
  <path class="e" d="M456.56734,43.017111c-15.48175.475037-62.48175,8.475037-62.48175,8.475037l13.999084,28.928772-49.587708,11.404419,2.967896-35.456177s-.380615-.066772-1.039978-.197266l-113.422852,15.519165c-11.430359,3.188965-22.515259,13.297546-19.497803,23.488647l3.285156,20.100159c1.501816.725327-12.170441,14.058472-2.480957,11.592712,21.683746-5.518036,250.720703-63.382874,250.720703-63.382874.746643-10.191223-6.980042-20.947632-22.461792-20.472595Z"/>
  <path class="g" d="M410.811742,80.64849l-17.426366-34.040637s11.714874-11.337833,15.974151-21.595831c4.259277-10.257999-6.446594-25.012022-6.446594-25.012022,0,0-27.800111,22.97146-32.873223,28.354307-5.929312-1.902917-44.880202-8.53112-44.880202-8.53112,0,0-2.240451,18.090805,6.446594,25.012022,8.687044,6.921217,27.76011,9.972355,27.76011,9.972355l-2.138433,39.434682"/>
</svg>