<?xml version="1.0" encoding="UTF-8"?>
<svg id="a" data-name="Layer 1" xmlns="http://www.w3.org/2000/svg" viewBox="0 0 520 520">
  <defs>
    <style>
      .b {
        fill: #ff0038;
      }

      .b, .c {
        stroke-width: 7px;
      }

      .b, .c, .d, .e, .f {
        stroke: #232323;
        stroke-miterlimit: 10;
      }

      .c, .d, .g {
        fill: #eae0c5;
      }

      .d, .f {
        stroke-width: 15px;
      }

      .e {
        fill: none;
        stroke-width: 32px;
      }

      .f {
        fill: #5e7d75;
      }

      .h {
        fill: #3b454f;
      }

      .h, .i, .j, .g {
        stroke-width: 0px;
      }

      .i {
        fill: #232323;
      }

      .j {
        fill: #fff;
      }
    </style>
  </defs>
  <circle class="j" cx="260" cy="260" r="260"/>
  <path class="e" d="M297.929246,294.016914c-20.613222,8.899387-51.372587,25.166111-81.481885,54.216939-35.891171,34.629471-58.565371,95.075885-64.123517,95.281352-5.558145.205467-22.602696-14.608298-22.602696-14.608298"/>
  <path class="e" d="M286.767292,307.903859c-5.908942,5.965717-23.305095,25.088213-25.534522,54.189214-3.812171,49.760779,42.045987,79.411719,42.282338,81.623905s-5.552904,9.355018-10.748916,14.573053c-7.736331,7.769115-9.453628,7.305146-14.641837,9.365913"/>
  <path class="f" d="M173.085223,134.192885l220.503844,27.942879c17.623842,2.233344,29.776799,20.883433,27.144417,41.656183l-16.211984,127.932597c-.347159,2.739515-2.824233,4.682092-5.532698,4.338867l-247.510496-31.365239,21.606916-170.505287Z"/>
  <path class="d" d="M157.648277,132.923926h.00007c19.358555,0,35.075246,15.716691,35.075246,35.075246v131.793633c0,2.759575-2.240425,5-5,5h-60.150563c-2.759575,0-5-2.240425-5-5v-131.793633c0-19.358555,15.716691-35.075246,35.075246-35.075246Z" transform="translate(28.765084 -18.082741) rotate(7.22219)"/>
  <path class="b" d="M324.952796,69.592241s-37.956861-39.605872-39.667147-39.822604l-6.059785-.767913c-3.148834-.399029-6.024946,1.830128-6.423976,4.978963l-22.061877,174.095476c-9.693284,2.851898-17.082751,11.699811-17.24639,22.767856-.163766,11.076651,7.521664,20.982368,18.291799,23.575281,14.166302,3.410542,27.747691-6.254162,29.527661-20.300326,1.313336-10.363841-4.20497-19.996933-13.032966-24.440514l17.074099-134.735747,35.377944,4.483194c4.624583.58604,7.422718-4.960793,4.220637-9.833665Z"/>
  <circle class="i" cx="256.745696" cy="230.893548" r="11.032486"/>
  <rect class="i" x="140.241942" y="181.522361" width="42.41772" height="9.459452" rx="4.729721" ry="4.729721" transform="translate(24.696074 -18.819476) rotate(7.22219)"/>
  <g>
    <path class="j" d="M383.106329,289.052499c-.379991-1.402354.448801-2.84712,1.851077-3.22709l-.688007-2.539084c-1.402277.37997-2.84712-.448801-3.22709-1.851077-.379991-1.402354.448801-2.84712,1.851077-3.22709l-.688007-2.539084c-1.402277.37997-2.84712-.448801-3.22709-1.851077-.379991-1.402354.448801-2.84712,1.851077-3.22709l-.688007-2.539084c-1.402277.37997-2.84712-.448801-3.22709-1.851077-.379991-1.402354.448801-2.84712,1.851077-3.22709l-.688007-2.539084c-1.402277.37997-2.84712-.448801-3.22709-1.851077-.379991-1.402354.448801-2.84712,1.851077-3.22709l-.688007-2.539084c-1.402277.37997-2.84712-.448801-3.22709-1.851077-.379991-1.402354.448801-2.84712,1.851077-3.22709l-1.03201-3.808625-3.808625,1.03201c.37997,1.402277-.448801,2.84712-1.851077,3.22709s-2.84712-.448801-3.22709-1.851077l-2.539084.688007c.37997,1.402277-.448801,2.84712-1.851077,3.22709-1.402277.37997-2.84712-.448801-3.22709-1.851077l-2.539084.688007c.37997,1.402277-.448801,2.84712-1.851077,3.22709s-2.84712-.448801-3.22709-1.851077l-2.539084.688007c.37997,1.402277-.448801,2.84712-1.851077,3.22709s-2.84712-.448801-3.22709-1.851077l-2.539084.688007c.37997,1.402277-.448801,2.84712-1.851077,3.22709-1.402277.37997-2.84712-.448801-3.22709-1.851077l-2.539084.688007c.37997,1.402277-.448801,2.84712-1.851077,3.22709s-2.84712-.448801-3.22709-1.851077l-3.808625,1.03201,1.03201,3.808625c1.402277-.37997,2.847099.448723,3.22709,1.851077.37997,1.402277-.448801,2.84712-1.851077,3.22709l.688007,2.539084c1.402277-.37997,2.847099.448723,3.22709,1.851077.37997,1.402277-.448801,2.84712-1.851077,3.22709l.688007,2.539084c1.402277-.37997,2.847099.448723,3.22709,1.851077.37997,1.402277-.448801,2.84712-1.851077,3.22709l.688007,2.539084c1.402277-.37997,2.847099.448723,3.22709,1.851077.37997,1.402277-.448801,2.84712-1.851077,3.22709l.688007,2.539084c1.402277-.37997,2.847099.448723,3.22709,1.851077.37997,1.402277-.448801,2.84712-1.851077,3.22709l.688007,2.539084c1.402277-.37997,2.847099.448723,3.22709,1.851077.37997,1.402277-.448801,2.84712-1.851077,3.22709l1.03201,3.808625,3.808625-1.03201c-.379991-1.402354.448801-2.84712,1.851077-3.22709s2.847099.448723,3.22709,1.851077l2.539084-.688007c-.379991-1.402354.448801-2.84712,1.851077-3.22709,1.402277-.37997,2.847099.448723,3.22709,1.851077l2.539084-.688007c-.379991-1.402354.448801-2.84712,1.851077-3.22709,1.402277-.37997,2.847099.448723,3.22709,1.851077l2.539084-.688007c-.379991-1.402354.448801-2.84712,1.851077-3.22709s2.847099.448723,3.22709,1.851077l2.539084-.688007c-.379991-1.402354.448801-2.84712,1.851077-3.22709s2.847099.448723,3.22709,1.851077l2.539084-.688007c-.379991-1.402354.448801-2.84712,1.851077-3.22709s2.847099.448723,3.22709,1.851077l3.808625-1.03201-1.03201-3.808625c-1.402277.37997-2.84712-.448801-3.22709-1.851077Z"/>
    <rect class="h" x="335.364681" y="256.471586" width="39.459692" height="39.459692" transform="translate(-59.87696 102.483215) rotate(-15.161177)"/>
    <path class="g" d="M345.916184,262.380186l-3.525168,24.864993c-.192762,1.359659,1.048068,2.65995,2.771471,2.904281l16.538639,2.344721c1.723403.244331,3.276763-.659821,3.469525-2.01948l2.652602-18.710292-9.70015-10.164983-8.737394-1.238721c-1.723403-.244331-3.276763.659821-3.469525,2.01948Z"/>
    <path class="i" d="M358.123103,261.599426l9.70015,10.164983-7.801245-1.106001c-1.723403-.244331-2.964234-1.544622-2.771471-2.904281l.872566-6.154701Z"/>
  </g>
  <g>
    <path class="c" d="M311.635147,437.412393c-.664727-1.97217-2.247803-7.169212-4.672421-10.489687-1.26285-1.72944-2.557747-3.135721-3.728627-4.250616-1.073175-1.021861-2.810257-.840012-3.614193.404814-1.556708,2.410428-3.885259,5.358721-7.268728,8.091022-4.450274,3.593791-8.964166,5.391514-12.211224,6.31689-1.354931.38614-2.066415,1.880871-1.513965,3.176919.591227,1.387019,1.414269,2.987977,2.562967,4.661059,2.583206,3.762462,5.518242,6.003455,7.166969,7.10708"/>
    <path class="c" d="M294.929698,446.525178c-28.487116,3.692933-44.970756,14.541452-41.948321,28.109411.452229,2.030102,2.140193,7.737887,10.502037,14.692561,1.933611,1.608214,4.681756,1.791993,6.836262.494568,7.898037-4.75613,16.234798-10.218426,24.820554-16.486271,11.795408-8.610922,22.035287-17.263656,30.8159-25.433029-2.518824-5.302618-5.515579-8.520574-7.800824-10.484779-2.923278-2.512593-4.858608-3.125086-8.075918-5.942522-3.554447-3.112689-5.787023-6.388788-7.112871-8.657135"/>
  </g>
  <g>
    <path class="c" d="M165.2115,448.555465c1.594931-1.336979,5.859247-4.703131,8.069412-8.170046,1.151141-1.80572,1.989626-3.523664,2.601854-5.020035.56114-1.371505-.240516-2.923237-1.692575-3.218922-2.811706-.572551-6.405323-1.668222-10.181745-3.825065-4.967122-2.836895-8.284538-6.386794-10.328331-9.074286-.852834-1.121436-2.504003-1.240047-3.51006-.253745-1.076673,1.055531-2.268231,2.404848-3.40843,4.083733-2.564107,3.775504-3.583051,7.324904-4.010851,9.262241"/>
    <path class="c" d="M150.643212,436.312922c-13.808629-25.188793-29.912848-36.592953-41.44995-28.839249-1.726236,1.160144-6.428082,4.809895-9.86206,15.129571-.794081,2.386345.035044,5.012869,2.027687,6.547332,7.304679,5.625072,15.426773,11.401735,24.38979,17.117101,12.313647,7.851989,24.10004,14.239936,34.905072,19.444655,4.022047-4.276139,5.928473-8.238629,6.926134-11.082063,1.276193-3.637308,1.14223-5.662821,2.59533-9.684951,1.605385-4.44361,3.844119-7.715504,5.474268-9.776058"/>
  </g>
</svg>